<svg xmlns="http://www.w3.org/2000/svg" xmlns:xlink="http://www.w3.org/1999/xlink" contentStyleType="text/css" data-diagram-type="CLASS" height="913px" preserveAspectRatio="none" style="width:1094px;height:913px;background:#FFFFFF;" version="1.1" viewBox="0 0 1094 913" width="1094px" zoomAndPan="magnify"><defs/><g><!--class User--><g id="elem_User"><rect codeLine="3" fill="#F1F1F1" height="162.0781" id="User" rx="2.5" ry="2.5" style="stroke:#181818;stroke-width:0.5;" width="176.6025" x="7" y="7"/><ellipse cx="75.0962" cy="23" fill="#ADD1B2" rx="11" ry="11" style="stroke:#181818;stroke-width:1;"/><path d="M79.2056,29 L71.4868,29 L71.4868,16.6094 L79.2056,16.6094 L79.2056,18.7656 L73.9399,18.7656 L73.9399,21.4375 L78.7056,21.4375 L78.7056,23.5938 L73.9399,23.5938 L73.9399,26.8438 L79.2056,26.8438 L79.2056,29 Z " fill="#000000"/><text fill="#000000" font-family="sans-serif" font-size="14" lengthAdjust="spacing" textLength="31.9102" x="95.5962" y="27.8467">User</text><line style="stroke:#181818;stroke-width:0.5;" x1="8" x2="182.6025" y1="39" y2="39"/><ellipse cx="18" cy="52.6484" fill="#000000" rx="3" ry="3" style="stroke:#000000;stroke-width:1;"/><text fill="#000000" font-family="sans-serif" font-size="14" lengthAdjust="spacing" textLength="63.7246" x="27" y="55.9951">id: String</text><ellipse cx="18" cy="68.9453" fill="#000000" rx="3" ry="3" style="stroke:#000000;stroke-width:1;"/><text fill="#000000" font-family="sans-serif" font-size="14" lengthAdjust="spacing" textLength="89.5576" x="27" y="72.292">email: String</text><ellipse cx="18" cy="85.2422" fill="#000000" rx="3" ry="3" style="stroke:#000000;stroke-width:1;"/><text fill="#000000" font-family="sans-serif" font-size="14" lengthAdjust="spacing" textLength="90.6514" x="27" y="88.5889">name: String</text><ellipse cx="18" cy="101.5391" fill="#000000" rx="3" ry="3" style="stroke:#000000;stroke-width:1;"/><text fill="#000000" font-family="sans-serif" font-size="14" lengthAdjust="spacing" textLength="117.6602" x="27" y="104.8857">password: String</text><ellipse cx="18" cy="117.8359" fill="#000000" rx="3" ry="3" style="stroke:#000000;stroke-width:1;"/><text fill="#000000" font-family="sans-serif" font-size="14" lengthAdjust="spacing" textLength="77.7725" x="27" y="121.1826">role: String</text><ellipse cx="18" cy="134.1328" fill="#000000" rx="3" ry="3" style="stroke:#000000;stroke-width:1;"/><text fill="#000000" font-family="sans-serif" font-size="14" lengthAdjust="spacing" textLength="146.0225" x="27" y="137.4795">createdAt: DateTime</text><ellipse cx="18" cy="150.4297" fill="#000000" rx="3" ry="3" style="stroke:#000000;stroke-width:1;"/><text fill="#000000" font-family="sans-serif" font-size="14" lengthAdjust="spacing" textLength="150.6025" x="27" y="153.7764">updatedAt: DateTime</text><line style="stroke:#181818;stroke-width:0.5;" x1="8" x2="182.6025" y1="161.0781" y2="161.0781"/></g><!--class Region--><g id="elem_Region"><rect codeLine="13" fill="#F1F1F1" height="129.4844" id="Region" rx="2.5" ry="2.5" style="stroke:#181818;stroke-width:0.5;" width="177.6348" x="218.48" y="23.3"/><ellipse cx="278.7696" cy="39.3" fill="#ADD1B2" rx="11" ry="11" style="stroke:#181818;stroke-width:1;"/><path d="M282.8789,45.3 L275.1602,45.3 L275.1602,32.9094 L282.8789,32.9094 L282.8789,35.0656 L277.6133,35.0656 L277.6133,37.7375 L282.3789,37.7375 L282.3789,39.8938 L277.6133,39.8938 L277.6133,43.1438 L282.8789,43.1438 L282.8789,45.3 Z " fill="#000000"/><text fill="#000000" font-family="sans-serif" font-size="14" lengthAdjust="spacing" textLength="48.5557" x="299.2696" y="44.1467">Region</text><line style="stroke:#181818;stroke-width:0.5;" x1="219.48" x2="395.1148" y1="55.3" y2="55.3"/><ellipse cx="229.48" cy="68.9484" fill="#000000" rx="3" ry="3" style="stroke:#000000;stroke-width:1;"/><text fill="#000000" font-family="sans-serif" font-size="14" lengthAdjust="spacing" textLength="40.4346" x="238.48" y="72.2951">id: Int</text><ellipse cx="229.48" cy="85.2453" fill="#000000" rx="3" ry="3" style="stroke:#000000;stroke-width:1;"/><text fill="#000000" font-family="sans-serif" font-size="14" lengthAdjust="spacing" textLength="90.6514" x="238.48" y="88.592">name: String</text><ellipse cx="229.48" cy="101.5422" fill="#000000" rx="3" ry="3" style="stroke:#000000;stroke-width:1;"/><text fill="#000000" font-family="sans-serif" font-size="14" lengthAdjust="spacing" textLength="151.6348" x="238.48" y="104.8889">properties: Property[]</text><ellipse cx="229.48" cy="117.8391" fill="#000000" rx="3" ry="3" style="stroke:#000000;stroke-width:1;"/><text fill="#000000" font-family="sans-serif" font-size="14" lengthAdjust="spacing" textLength="146.0225" x="238.48" y="121.1857">createdAt: DateTime</text><ellipse cx="229.48" cy="134.1359" fill="#000000" rx="3" ry="3" style="stroke:#000000;stroke-width:1;"/><text fill="#000000" font-family="sans-serif" font-size="14" lengthAdjust="spacing" textLength="150.6025" x="238.48" y="137.4826">updatedAt: DateTime</text><line style="stroke:#181818;stroke-width:0.5;" x1="219.48" x2="395.1148" y1="144.7844" y2="144.7844"/></g><!--class Neighborhood--><g id="elem_Neighborhood"><rect codeLine="21" fill="#F1F1F1" height="129.4844" id="Neighborhood" rx="2.5" ry="2.5" style="stroke:#181818;stroke-width:0.5;" width="177.6348" x="431.48" y="23.3"/><ellipse cx="467.5404" cy="39.3" fill="#ADD1B2" rx="11" ry="11" style="stroke:#181818;stroke-width:1;"/><path d="M471.6497,45.3 L463.931,45.3 L463.931,32.9094 L471.6497,32.9094 L471.6497,35.0656 L466.3841,35.0656 L466.3841,37.7375 L471.1497,37.7375 L471.1497,39.8938 L466.3841,39.8938 L466.3841,43.1438 L471.6497,43.1438 L471.6497,45.3 Z " fill="#000000"/><text fill="#000000" font-family="sans-serif" font-size="14" lengthAdjust="spacing" textLength="98.834" x="486.2204" y="44.1467">Neighborhood</text><line style="stroke:#181818;stroke-width:0.5;" x1="432.48" x2="608.1148" y1="55.3" y2="55.3"/><ellipse cx="442.48" cy="68.9484" fill="#000000" rx="3" ry="3" style="stroke:#000000;stroke-width:1;"/><text fill="#000000" font-family="sans-serif" font-size="14" lengthAdjust="spacing" textLength="40.4346" x="451.48" y="72.2951">id: Int</text><ellipse cx="442.48" cy="85.2453" fill="#000000" rx="3" ry="3" style="stroke:#000000;stroke-width:1;"/><text fill="#000000" font-family="sans-serif" font-size="14" lengthAdjust="spacing" textLength="90.6514" x="451.48" y="88.592">name: String</text><ellipse cx="442.48" cy="101.5422" fill="#000000" rx="3" ry="3" style="stroke:#000000;stroke-width:1;"/><text fill="#000000" font-family="sans-serif" font-size="14" lengthAdjust="spacing" textLength="151.6348" x="451.48" y="104.8889">properties: Property[]</text><ellipse cx="442.48" cy="117.8391" fill="#000000" rx="3" ry="3" style="stroke:#000000;stroke-width:1;"/><text fill="#000000" font-family="sans-serif" font-size="14" lengthAdjust="spacing" textLength="146.0225" x="451.48" y="121.1857">createdAt: DateTime</text><ellipse cx="442.48" cy="134.1359" fill="#000000" rx="3" ry="3" style="stroke:#000000;stroke-width:1;"/><text fill="#000000" font-family="sans-serif" font-size="14" lengthAdjust="spacing" textLength="150.6025" x="451.48" y="137.4826">updatedAt: DateTime</text><line style="stroke:#181818;stroke-width:0.5;" x1="432.48" x2="608.1148" y1="144.7844" y2="144.7844"/></g><!--class Feature--><g id="elem_Feature"><rect codeLine="29" fill="#F1F1F1" height="145.7813" id="Feature" rx="2.5" ry="2.5" style="stroke:#181818;stroke-width:0.5;" width="231.6113" x="644.5" y="15.15"/><ellipse cx="729.0674" cy="31.15" fill="#ADD1B2" rx="11" ry="11" style="stroke:#181818;stroke-width:1;"/><path d="M733.1768,37.15 L725.458,37.15 L725.458,24.7594 L733.1768,24.7594 L733.1768,26.9156 L727.9111,26.9156 L727.9111,29.5875 L732.6768,29.5875 L732.6768,31.7438 L727.9111,31.7438 L727.9111,34.9938 L733.1768,34.9938 L733.1768,37.15 Z " fill="#000000"/><text fill="#000000" font-family="sans-serif" font-size="14" lengthAdjust="spacing" textLength="53.9766" x="749.5674" y="35.9967">Feature</text><line style="stroke:#181818;stroke-width:0.5;" x1="645.5" x2="875.1113" y1="47.15" y2="47.15"/><ellipse cx="655.5" cy="60.7984" fill="#000000" rx="3" ry="3" style="stroke:#000000;stroke-width:1;"/><text fill="#000000" font-family="sans-serif" font-size="14" lengthAdjust="spacing" textLength="40.4346" x="664.5" y="64.1451">id: Int</text><ellipse cx="655.5" cy="77.0953" fill="#000000" rx="3" ry="3" style="stroke:#000000;stroke-width:1;"/><text fill="#000000" font-family="sans-serif" font-size="14" lengthAdjust="spacing" textLength="90.6514" x="664.5" y="80.442">name: String</text><ellipse cx="655.5" cy="93.3922" fill="#000000" rx="3" ry="3" style="stroke:#000000;stroke-width:1;"/><text fill="#000000" font-family="sans-serif" font-size="14" lengthAdjust="spacing" textLength="82.2227" x="664.5" y="96.7389">type: String</text><ellipse cx="655.5" cy="109.6891" fill="#000000" rx="3" ry="3" style="stroke:#000000;stroke-width:1;"/><text fill="#000000" font-family="sans-serif" font-size="14" lengthAdjust="spacing" textLength="205.6113" x="664.5" y="113.0357">properties: PropertyFeature[]</text><ellipse cx="655.5" cy="125.9859" fill="#000000" rx="3" ry="3" style="stroke:#000000;stroke-width:1;"/><text fill="#000000" font-family="sans-serif" font-size="14" lengthAdjust="spacing" textLength="146.0225" x="664.5" y="129.3326">createdAt: DateTime</text><ellipse cx="655.5" cy="142.2828" fill="#000000" rx="3" ry="3" style="stroke:#000000;stroke-width:1;"/><text fill="#000000" font-family="sans-serif" font-size="14" lengthAdjust="spacing" textLength="150.6025" x="664.5" y="145.6295">updatedAt: DateTime</text><line style="stroke:#181818;stroke-width:0.5;" x1="645.5" x2="875.1113" y1="152.9313" y2="152.9313"/></g><!--class Property--><g id="elem_Property"><rect codeLine="38" fill="#F1F1F1" height="455.4219" id="Property" rx="2.5" ry="2.5" style="stroke:#181818;stroke-width:0.5;" width="238.666" x="187.97" y="229.08"/><ellipse cx="273.156" cy="245.08" fill="#ADD1B2" rx="11" ry="11" style="stroke:#181818;stroke-width:1;"/><path d="M277.2654,251.08 L269.5467,251.08 L269.5467,238.6894 L277.2654,238.6894 L277.2654,240.8456 L271.9998,240.8456 L271.9998,243.5175 L276.7654,243.5175 L276.7654,245.6738 L271.9998,245.6738 L271.9998,248.9238 L277.2654,248.9238 L277.2654,251.08 Z " fill="#000000"/><text fill="#000000" font-family="sans-serif" font-size="14" lengthAdjust="spacing" textLength="59.7939" x="293.656" y="249.9267">Property</text><line style="stroke:#181818;stroke-width:0.5;" x1="188.97" x2="425.636" y1="261.08" y2="261.08"/><ellipse cx="198.97" cy="274.7284" fill="#000000" rx="3" ry="3" style="stroke:#000000;stroke-width:1;"/><text fill="#000000" font-family="sans-serif" font-size="14" lengthAdjust="spacing" textLength="63.7246" x="207.97" y="278.0751">id: String</text><ellipse cx="198.97" cy="291.0253" fill="#000000" rx="3" ry="3" style="stroke:#000000;stroke-width:1;"/><text fill="#000000" font-family="sans-serif" font-size="14" lengthAdjust="spacing" textLength="78.3193" x="207.97" y="294.372">title: String</text><ellipse cx="198.97" cy="307.3222" fill="#000000" rx="3" ry="3" style="stroke:#000000;stroke-width:1;"/><text fill="#000000" font-family="sans-serif" font-size="14" lengthAdjust="spacing" textLength="128.7891" x="207.97" y="310.6689">description: String</text><ellipse cx="198.97" cy="323.6191" fill="#000000" rx="3" ry="3" style="stroke:#000000;stroke-width:1;"/><text fill="#000000" font-family="sans-serif" font-size="14" lengthAdjust="spacing" textLength="78.5859" x="207.97" y="326.9657">price: Float</text><ellipse cx="198.97" cy="339.9159" fill="#000000" rx="3" ry="3" style="stroke:#000000;stroke-width:1;"/><text fill="#000000" font-family="sans-serif" font-size="14" lengthAdjust="spacing" textLength="112.499" x="207.97" y="343.2626">currency: String</text><ellipse cx="198.97" cy="356.2128" fill="#000000" rx="3" ry="3" style="stroke:#000000;stroke-width:1;"/><text fill="#000000" font-family="sans-serif" font-size="14" lengthAdjust="spacing" textLength="112.0889" x="207.97" y="359.5595">area_sqm: Float</text><text fill="#000000" font-family="sans-serif" font-size="14" lengthAdjust="spacing" textLength="156.748" x="207.97" y="375.8564">land_area_sqm: Float?</text><text fill="#000000" font-family="sans-serif" font-size="14" lengthAdjust="spacing" textLength="66.7939" x="207.97" y="392.1532">floor: Int?</text><text fill="#000000" font-family="sans-serif" font-size="14" lengthAdjust="spacing" textLength="113.1006" x="207.97" y="408.4501">total_floors: Int?</text><text fill="#000000" font-family="sans-serif" font-size="14" lengthAdjust="spacing" textLength="183.7158" x="207.97" y="424.747">construction_type: String?</text><text fill="#000000" font-family="sans-serif" font-size="14" lengthAdjust="spacing" textLength="128.5156" x="207.97" y="441.0439">furnishing: String?</text><ellipse cx="198.97" cy="453.9941" fill="#000000" rx="3" ry="3" style="stroke:#000000;stroke-width:1;"/><text fill="#000000" font-family="sans-serif" font-size="14" lengthAdjust="spacing" textLength="144.7715" x="207.97" y="457.3407">location_type: String</text><text fill="#000000" font-family="sans-serif" font-size="14" lengthAdjust="spacing" textLength="109.7373" x="207.97" y="473.6376">region: Region?</text><text fill="#000000" font-family="sans-serif" font-size="14" lengthAdjust="spacing" textLength="92.6885" x="207.97" y="489.9345">regionId: Int?</text><text fill="#000000" font-family="sans-serif" font-size="14" lengthAdjust="spacing" textLength="212.666" x="207.97" y="506.2314">neighborhood: Neighborhood?</text><text fill="#000000" font-family="sans-serif" font-size="14" lengthAdjust="spacing" textLength="145.3389" x="207.97" y="522.5282">neighborhoodId: Int?</text><text fill="#000000" font-family="sans-serif" font-size="14" lengthAdjust="spacing" textLength="176.4492" x="207.97" y="538.8251">has_regulation: Boolean?</text><ellipse cx="198.97" cy="551.7753" fill="#000000" rx="3" ry="3" style="stroke:#000000;stroke-width:1;"/><text fill="#000000" font-family="sans-serif" font-size="14" lengthAdjust="spacing" textLength="112.8203" x="207.97" y="555.122">category: String</text><ellipse cx="198.97" cy="568.0722" fill="#000000" rx="3" ry="3" style="stroke:#000000;stroke-width:1;"/><text fill="#000000" font-family="sans-serif" font-size="14" lengthAdjust="spacing" textLength="82.2227" x="207.97" y="571.4189">type: String</text><ellipse cx="198.97" cy="584.3691" fill="#000000" rx="3" ry="3" style="stroke:#000000;stroke-width:1;"/><text fill="#000000" font-family="sans-serif" font-size="14" lengthAdjust="spacing" textLength="125.5967" x="207.97" y="587.7157">featured: Boolean</text><ellipse cx="198.97" cy="600.6659" fill="#000000" rx="3" ry="3" style="stroke:#000000;stroke-width:1;"/><text fill="#000000" font-family="sans-serif" font-size="14" lengthAdjust="spacing" textLength="114.8369" x="207.97" y="604.0126">images: Image[]</text><text fill="#000000" font-family="sans-serif" font-size="14" lengthAdjust="spacing" textLength="183.21" x="207.97" y="620.3095">contact_info: ContactInfo?</text><ellipse cx="198.97" cy="633.2597" fill="#000000" rx="3" ry="3" style="stroke:#000000;stroke-width:1;"/><text fill="#000000" font-family="sans-serif" font-size="14" lengthAdjust="spacing" textLength="192.0078" x="207.97" y="636.6064">features: PropertyFeature[]</text><ellipse cx="198.97" cy="649.5566" fill="#000000" rx="3" ry="3" style="stroke:#000000;stroke-width:1;"/><text fill="#000000" font-family="sans-serif" font-size="14" lengthAdjust="spacing" textLength="146.0225" x="207.97" y="652.9032">createdAt: DateTime</text><ellipse cx="198.97" cy="665.8534" fill="#000000" rx="3" ry="3" style="stroke:#000000;stroke-width:1;"/><text fill="#000000" font-family="sans-serif" font-size="14" lengthAdjust="spacing" textLength="150.6025" x="207.97" y="669.2001">updatedAt: DateTime</text><line style="stroke:#181818;stroke-width:0.5;" x1="188.97" x2="425.636" y1="676.5019" y2="676.5019"/></g><!--class PropertyFeature--><g id="elem_PropertyFeature"><rect codeLine="66" fill="#F1F1F1" height="145.7813" id="PropertyFeature" rx="2.5" ry="2.5" style="stroke:#181818;stroke-width:0.5;" width="176.6025" x="672" y="383.9"/><ellipse cx="700.8744" cy="399.9" fill="#ADD1B2" rx="11" ry="11" style="stroke:#181818;stroke-width:1;"/><path d="M704.9838,405.9 L697.265,405.9 L697.265,393.5094 L704.9838,393.5094 L704.9838,395.6656 L699.7182,395.6656 L699.7182,398.3375 L704.4838,398.3375 L704.4838,400.4938 L699.7182,400.4938 L699.7182,403.7438 L704.9838,403.7438 L704.9838,405.9 Z " fill="#000000"/><text fill="#000000" font-family="sans-serif" font-size="14" lengthAdjust="spacing" textLength="113.7705" x="717.9576" y="404.7467">PropertyFeature</text><line style="stroke:#181818;stroke-width:0.5;" x1="673" x2="847.6025" y1="415.9" y2="415.9"/><ellipse cx="683" cy="429.5484" fill="#000000" rx="3" ry="3" style="stroke:#000000;stroke-width:1;"/><text fill="#000000" font-family="sans-serif" font-size="14" lengthAdjust="spacing" textLength="124.2021" x="692" y="432.8951">propertyId: String</text><ellipse cx="683" cy="445.8453" fill="#000000" rx="3" ry="3" style="stroke:#000000;stroke-width:1;"/><text fill="#000000" font-family="sans-serif" font-size="14" lengthAdjust="spacing" textLength="91.5264" x="692" y="449.192">featureId: Int</text><ellipse cx="683" cy="462.1422" fill="#000000" rx="3" ry="3" style="stroke:#000000;stroke-width:1;"/><text fill="#000000" font-family="sans-serif" font-size="14" lengthAdjust="spacing" textLength="129.1992" x="692" y="465.4889">property: Property</text><ellipse cx="683" cy="478.4391" fill="#000000" rx="3" ry="3" style="stroke:#000000;stroke-width:1;"/><text fill="#000000" font-family="sans-serif" font-size="14" lengthAdjust="spacing" textLength="113.9961" x="692" y="481.7857">feature: Feature</text><ellipse cx="683" cy="494.7359" fill="#000000" rx="3" ry="3" style="stroke:#000000;stroke-width:1;"/><text fill="#000000" font-family="sans-serif" font-size="14" lengthAdjust="spacing" textLength="146.0225" x="692" y="498.0826">createdAt: DateTime</text><ellipse cx="683" cy="511.0328" fill="#000000" rx="3" ry="3" style="stroke:#000000;stroke-width:1;"/><text fill="#000000" font-family="sans-serif" font-size="14" lengthAdjust="spacing" textLength="150.6025" x="692" y="514.3795">updatedAt: DateTime</text><line style="stroke:#181818;stroke-width:0.5;" x1="673" x2="847.6025" y1="521.6813" y2="521.6813"/></g><!--class Image--><g id="elem_Image"><rect codeLine="75" fill="#F1F1F1" height="145.7813" id="Image" rx="2.5" ry="2.5" style="stroke:#181818;stroke-width:0.5;" width="176.6025" x="113" y="752.65"/><ellipse cx="175.1284" cy="768.65" fill="#ADD1B2" rx="11" ry="11" style="stroke:#181818;stroke-width:1;"/><path d="M179.2378,774.65 L171.519,774.65 L171.519,762.2594 L179.2378,762.2594 L179.2378,764.4156 L173.9722,764.4156 L173.9722,767.0875 L178.7378,767.0875 L178.7378,769.2438 L173.9722,769.2438 L173.9722,772.4938 L179.2378,772.4938 L179.2378,774.65 Z " fill="#000000"/><text fill="#000000" font-family="sans-serif" font-size="14" lengthAdjust="spacing" textLength="43.8457" x="195.6284" y="773.4967">Image</text><line style="stroke:#181818;stroke-width:0.5;" x1="114" x2="288.6025" y1="784.65" y2="784.65"/><ellipse cx="124" cy="798.2984" fill="#000000" rx="3" ry="3" style="stroke:#000000;stroke-width:1;"/><text fill="#000000" font-family="sans-serif" font-size="14" lengthAdjust="spacing" textLength="63.7246" x="133" y="801.6451">id: String</text><ellipse cx="124" cy="814.5953" fill="#000000" rx="3" ry="3" style="stroke:#000000;stroke-width:1;"/><text fill="#000000" font-family="sans-serif" font-size="14" lengthAdjust="spacing" textLength="69.4668" x="133" y="817.942">url: String</text><ellipse cx="124" cy="830.8922" fill="#000000" rx="3" ry="3" style="stroke:#000000;stroke-width:1;"/><text fill="#000000" font-family="sans-serif" font-size="14" lengthAdjust="spacing" textLength="129.1992" x="133" y="834.2389">property: Property</text><ellipse cx="124" cy="847.1891" fill="#000000" rx="3" ry="3" style="stroke:#000000;stroke-width:1;"/><text fill="#000000" font-family="sans-serif" font-size="14" lengthAdjust="spacing" textLength="124.2021" x="133" y="850.5357">propertyId: String</text><ellipse cx="124" cy="863.4859" fill="#000000" rx="3" ry="3" style="stroke:#000000;stroke-width:1;"/><text fill="#000000" font-family="sans-serif" font-size="14" lengthAdjust="spacing" textLength="146.0225" x="133" y="866.8326">createdAt: DateTime</text><ellipse cx="124" cy="879.7828" fill="#000000" rx="3" ry="3" style="stroke:#000000;stroke-width:1;"/><text fill="#000000" font-family="sans-serif" font-size="14" lengthAdjust="spacing" textLength="150.6025" x="133" y="883.1295">updatedAt: DateTime</text><line style="stroke:#181818;stroke-width:0.5;" x1="114" x2="288.6025" y1="890.4313" y2="890.4313"/></g><!--class ContactInfo--><g id="elem_ContactInfo"><rect codeLine="84" fill="#F1F1F1" height="162.0781" id="ContactInfo" rx="2.5" ry="2.5" style="stroke:#181818;stroke-width:0.5;" width="176.6025" x="325" y="744.5"/><ellipse cx="368.637" cy="760.5" fill="#ADD1B2" rx="11" ry="11" style="stroke:#181818;stroke-width:1;"/><path d="M372.7463,766.5 L365.0276,766.5 L365.0276,754.1094 L372.7463,754.1094 L372.7463,756.2656 L367.4807,756.2656 L367.4807,758.9375 L372.2463,758.9375 L372.2463,761.0938 L367.4807,761.0938 L367.4807,764.3438 L372.7463,764.3438 L372.7463,766.5 Z " fill="#000000"/><text fill="#000000" font-family="sans-serif" font-size="14" lengthAdjust="spacing" textLength="80.9648" x="389.0007" y="765.3467">ContactInfo</text><line style="stroke:#181818;stroke-width:0.5;" x1="326" x2="500.6025" y1="776.5" y2="776.5"/><ellipse cx="336" cy="790.1484" fill="#000000" rx="3" ry="3" style="stroke:#000000;stroke-width:1;"/><text fill="#000000" font-family="sans-serif" font-size="14" lengthAdjust="spacing" textLength="63.7246" x="345" y="793.4951">id: String</text><ellipse cx="336" cy="806.4453" fill="#000000" rx="3" ry="3" style="stroke:#000000;stroke-width:1;"/><text fill="#000000" font-family="sans-serif" font-size="14" lengthAdjust="spacing" textLength="94.7598" x="345" y="809.792">phone: String</text><ellipse cx="336" cy="822.7422" fill="#000000" rx="3" ry="3" style="stroke:#000000;stroke-width:1;"/><text fill="#000000" font-family="sans-serif" font-size="14" lengthAdjust="spacing" textLength="89.5576" x="345" y="826.0889">email: String</text><ellipse cx="336" cy="839.0391" fill="#000000" rx="3" ry="3" style="stroke:#000000;stroke-width:1;"/><text fill="#000000" font-family="sans-serif" font-size="14" lengthAdjust="spacing" textLength="129.1992" x="345" y="842.3857">property: Property</text><ellipse cx="336" cy="855.3359" fill="#000000" rx="3" ry="3" style="stroke:#000000;stroke-width:1;"/><text fill="#000000" font-family="sans-serif" font-size="14" lengthAdjust="spacing" textLength="124.2021" x="345" y="858.6826">propertyId: String</text><ellipse cx="336" cy="871.6328" fill="#000000" rx="3" ry="3" style="stroke:#000000;stroke-width:1;"/><text fill="#000000" font-family="sans-serif" font-size="14" lengthAdjust="spacing" textLength="146.0225" x="345" y="874.9795">createdAt: DateTime</text><ellipse cx="336" cy="887.9297" fill="#000000" rx="3" ry="3" style="stroke:#000000;stroke-width:1;"/><text fill="#000000" font-family="sans-serif" font-size="14" lengthAdjust="spacing" textLength="150.6025" x="345" y="891.2764">updatedAt: DateTime</text><line style="stroke:#181818;stroke-width:0.5;" x1="326" x2="500.6025" y1="898.5781" y2="898.5781"/></g><!--class ContactMessage--><g id="elem_ContactMessage"><rect codeLine="94" fill="#F1F1F1" height="162.0781" id="ContactMessage" rx="2.5" ry="2.5" style="stroke:#181818;stroke-width:0.5;" width="176.6025" x="911" y="7"/><ellipse cx="938.9485" cy="23" fill="#ADD1B2" rx="11" ry="11" style="stroke:#181818;stroke-width:1;"/><path d="M943.0579,29 L935.3391,29 L935.3391,16.6094 L943.0579,16.6094 L943.0579,18.7656 L937.7922,18.7656 L937.7922,21.4375 L942.5579,21.4375 L942.5579,23.5938 L937.7922,23.5938 L937.7922,26.8438 L943.0579,26.8438 L943.0579,29 Z " fill="#000000"/><text fill="#000000" font-family="sans-serif" font-size="14" lengthAdjust="spacing" textLength="115.8281" x="955.8259" y="27.8467">ContactMessage</text><line style="stroke:#181818;stroke-width:0.5;" x1="912" x2="1086.6025" y1="39" y2="39"/><ellipse cx="922" cy="52.6484" fill="#000000" rx="3" ry="3" style="stroke:#000000;stroke-width:1;"/><text fill="#000000" font-family="sans-serif" font-size="14" lengthAdjust="spacing" textLength="63.7246" x="931" y="55.9951">id: String</text><ellipse cx="922" cy="68.9453" fill="#000000" rx="3" ry="3" style="stroke:#000000;stroke-width:1;"/><text fill="#000000" font-family="sans-serif" font-size="14" lengthAdjust="spacing" textLength="90.6514" x="931" y="72.292">name: String</text><ellipse cx="922" cy="85.2422" fill="#000000" rx="3" ry="3" style="stroke:#000000;stroke-width:1;"/><text fill="#000000" font-family="sans-serif" font-size="14" lengthAdjust="spacing" textLength="89.5576" x="931" y="88.5889">email: String</text><ellipse cx="922" cy="101.5391" fill="#000000" rx="3" ry="3" style="stroke:#000000;stroke-width:1;"/><text fill="#000000" font-family="sans-serif" font-size="14" lengthAdjust="spacing" textLength="113.8662" x="931" y="104.8857">message: String</text><ellipse cx="922" cy="117.8359" fill="#000000" rx="3" ry="3" style="stroke:#000000;stroke-width:1;"/><text fill="#000000" font-family="sans-serif" font-size="14" lengthAdjust="spacing" textLength="112.8477" x="931" y="121.1826">isRead: Boolean</text><ellipse cx="922" cy="134.1328" fill="#000000" rx="3" ry="3" style="stroke:#000000;stroke-width:1;"/><text fill="#000000" font-family="sans-serif" font-size="14" lengthAdjust="spacing" textLength="146.0225" x="931" y="137.4795">createdAt: DateTime</text><ellipse cx="922" cy="150.4297" fill="#000000" rx="3" ry="3" style="stroke:#000000;stroke-width:1;"/><text fill="#000000" font-family="sans-serif" font-size="14" lengthAdjust="spacing" textLength="150.6025" x="931" y="153.7764">updatedAt: DateTime</text><line style="stroke:#181818;stroke-width:0.5;" x1="912" x2="1086.6025" y1="161.0781" y2="161.0781"/></g><!--link Region to Property--><g id="link_Region_Property"><path codeLine="104" d="M277.7,168.12 C277.7,190.24 277.7,193.38 277.7,220.89 " fill="#FFFFFF" fill-opacity="0.00000" id="Region-Property" style="stroke:#181818;stroke-width:1;stroke-dasharray:7.0,7.0;"/><line style="stroke:#181818;stroke-width:1;" x1="277.7" x2="277.7" y1="164.12" y2="153.12"/><ellipse cx="277.7" cy="164.12" fill="#FFFFFF" fill-opacity="0.00000" rx="4" ry="4" style="stroke:#181818;stroke-width:1;"/><line style="stroke:#181818;stroke-width:1;" x1="273.7" x2="281.7" y1="157.12" y2="157.12"/><line style="stroke:#181818;stroke-width:1;" x1="277.7" x2="283.7" y1="220.89" y2="228.89"/><line style="stroke:#181818;stroke-width:1;" x1="277.7" x2="271.7" y1="220.89" y2="228.89"/><line style="stroke:#181818;stroke-width:1;" x1="277.7" x2="277.7" y1="220.89" y2="228.89"/><line style="stroke:#181818;stroke-width:1;" x1="281.7" x2="273.7" y1="218.89" y2="218.89"/></g><!--link Region to Property--><g id="link_Region_Property"><path codeLine="107" d="M336.91,168.12 C336.91,190.24 336.91,193.38 336.91,220.89 " fill="#FFFFFF" fill-opacity="0.00000" id="Region-Property-1" style="stroke:#181818;stroke-width:1;stroke-dasharray:7.0,7.0;"/><line style="stroke:#181818;stroke-width:1;" x1="336.91" x2="336.91" y1="164.12" y2="153.12"/><ellipse cx="336.91" cy="164.12" fill="#FFFFFF" fill-opacity="0.00000" rx="4" ry="4" style="stroke:#181818;stroke-width:1;"/><line style="stroke:#181818;stroke-width:1;" x1="332.91" x2="340.91" y1="157.12" y2="157.12"/><line style="stroke:#181818;stroke-width:1;" x1="336.91" x2="342.91" y1="220.89" y2="228.89"/><line style="stroke:#181818;stroke-width:1;" x1="336.91" x2="330.91" y1="220.89" y2="228.89"/><line style="stroke:#181818;stroke-width:1;" x1="336.91" x2="336.91" y1="220.89" y2="228.89"/><line style="stroke:#181818;stroke-width:1;" x1="340.91" x2="332.91" y1="218.89" y2="218.89"/></g><!--link Neighborhood to Property--><g id="link_Neighborhood_Property"><path codeLine="105" d="M416.1,88.58 C404.4,88.58 411.38,88.58 411.38,88.58 C411.38,88.58 411.38,145.51 411.38,220.84 " fill="#FFFFFF" fill-opacity="0.00000" id="Neighborhood-Property" style="stroke:#181818;stroke-width:1;stroke-dasharray:7.0,7.0;"/><line style="stroke:#181818;stroke-width:1;" x1="420.1" x2="431.1" y1="88.58" y2="88.58"/><ellipse cx="420.1" cy="88.58" fill="#FFFFFF" fill-opacity="0.00000" rx="4" ry="4" style="stroke:#181818;stroke-width:1;"/><line style="stroke:#181818;stroke-width:1;" x1="427.1" x2="427.1" y1="84.58" y2="92.58"/><line style="stroke:#181818;stroke-width:1;" x1="411.38" x2="417.38" y1="220.84" y2="228.84"/><line style="stroke:#181818;stroke-width:1;" x1="411.38" x2="405.38" y1="220.84" y2="228.84"/><line style="stroke:#181818;stroke-width:1;" x1="411.38" x2="411.38" y1="220.84" y2="228.84"/><line style="stroke:#181818;stroke-width:1;" x1="415.38" x2="407.38" y1="218.84" y2="218.84"/></g><!--link Feature to PropertyFeature--><g id="link_Feature_PropertyFeature"><path codeLine="106" d="M730.87,169.33 C730.87,233.82 730.87,311.2 730.87,375.64 " fill="#FFFFFF" fill-opacity="0.00000" id="Feature-PropertyFeature" style="stroke:#181818;stroke-width:1;stroke-dasharray:7.0,7.0;"/><line style="stroke:#181818;stroke-width:1;" x1="726.87" x2="734.87" y1="165.33" y2="165.33"/><line style="stroke:#181818;stroke-width:1;" x1="726.87" x2="734.87" y1="168.33" y2="168.33"/><line style="stroke:#181818;stroke-width:1;" x1="730.87" x2="730.87" y1="169.33" y2="161.33"/><line style="stroke:#181818;stroke-width:1;" x1="730.87" x2="736.87" y1="375.64" y2="383.64"/><line style="stroke:#181818;stroke-width:1;" x1="730.87" x2="724.87" y1="375.64" y2="383.64"/><line style="stroke:#181818;stroke-width:1;" x1="730.87" x2="730.87" y1="375.64" y2="383.64"/><line style="stroke:#181818;stroke-width:1;" x1="734.87" x2="726.87" y1="373.64" y2="373.64"/></g><!--link Feature to PropertyFeature--><g id="link_Feature_PropertyFeature"><path codeLine="108" d="M789.74,169.33 C789.74,233.82 789.74,311.2 789.74,375.64 " fill="#FFFFFF" fill-opacity="0.00000" id="Feature-PropertyFeature-1" style="stroke:#181818;stroke-width:1;stroke-dasharray:7.0,7.0;"/><line style="stroke:#181818;stroke-width:1;" x1="785.74" x2="793.74" y1="165.33" y2="165.33"/><line style="stroke:#181818;stroke-width:1;" x1="785.74" x2="793.74" y1="168.33" y2="168.33"/><line style="stroke:#181818;stroke-width:1;" x1="789.74" x2="789.74" y1="169.33" y2="161.33"/><line style="stroke:#181818;stroke-width:1;" x1="789.74" x2="795.74" y1="375.64" y2="383.64"/><line style="stroke:#181818;stroke-width:1;" x1="789.74" x2="783.74" y1="375.64" y2="383.64"/><line style="stroke:#181818;stroke-width:1;" x1="789.74" x2="789.74" y1="375.64" y2="383.64"/><line style="stroke:#181818;stroke-width:1;" x1="793.74" x2="785.74" y1="373.64" y2="373.64"/></g><!--link Property to Image--><g id="link_Property_Image"><path codeLine="109" d="M238.79,692.82 C238.79,717.02 238.79,724.15 238.79,744.42 " fill="#FFFFFF" fill-opacity="0.00000" id="Property-Image" style="stroke:#181818;stroke-width:1;stroke-dasharray:7.0,7.0;"/><line style="stroke:#181818;stroke-width:1;" x1="234.79" x2="242.79" y1="688.82" y2="688.82"/><line style="stroke:#181818;stroke-width:1;" x1="234.79" x2="242.79" y1="691.82" y2="691.82"/><line style="stroke:#181818;stroke-width:1;" x1="238.79" x2="238.79" y1="692.82" y2="684.82"/><line style="stroke:#181818;stroke-width:1;" x1="238.79" x2="244.79" y1="744.42" y2="752.42"/><line style="stroke:#181818;stroke-width:1;" x1="238.79" x2="232.79" y1="744.42" y2="752.42"/><line style="stroke:#181818;stroke-width:1;" x1="238.79" x2="238.79" y1="744.42" y2="752.42"/><line style="stroke:#181818;stroke-width:1;" x1="242.79" x2="234.79" y1="742.42" y2="742.42"/></g><!--link Property to ContactInfo--><g id="link_Property_ContactInfo"><path codeLine="110" d="M375.82,692.82 C375.82,713.77 375.82,710.93 375.82,729.11 " fill="#FFFFFF" fill-opacity="0.00000" id="Property-ContactInfo" style="stroke:#181818;stroke-width:1;stroke-dasharray:7.0,7.0;"/><line style="stroke:#181818;stroke-width:1;" x1="371.82" x2="379.82" y1="688.82" y2="688.82"/><line style="stroke:#181818;stroke-width:1;" x1="371.82" x2="379.82" y1="691.82" y2="691.82"/><line style="stroke:#181818;stroke-width:1;" x1="375.82" x2="375.82" y1="692.82" y2="684.82"/><line style="stroke:#181818;stroke-width:1;" x1="375.82" x2="375.82" y1="733.11" y2="744.11"/><ellipse cx="375.82" cy="733.11" fill="#FFFFFF" fill-opacity="0.00000" rx="4" ry="4" style="stroke:#181818;stroke-width:1;"/><line style="stroke:#181818;stroke-width:1;" x1="379.82" x2="371.82" y1="740.11" y2="740.11"/></g><!--SRC=[nPLDRzmW48Rl-oiuvv0VuCkg7uhaGwigRKzHP56OjL4mumvOaHNtlnVZZmMljvjsrVQqvcK67cPUMFkaJCE9rqmh0wvhW26v2dSxC4wvZdsrGEnbnzWDKp9ZdnqfKuOXr5pfH36yXaHekBNFI6aUeKwZ105t8D-uZBtt7rzK3K5l6tcY_rZ0xg5KQ2AqtBWp58GDa5DWC_Pf_EuU7g_O-YEeilg6L27A_m9mvvDQWjViFRJq8ioqtbLCyrhRPl4XgwvBi89KutmJLtnA-CWxZNmyacY9m8WkYUAUiR3VwsEWvaOMAtdlzOD6f52WOUJGSLq4pIwYG6CTjM9WAUA2XVoMZBAL7yNg3TCe-4c2dw7WospovtvHShdiPoB_P8cRrhDHKiLjuLTgDHzBzXRzFU9cXF4eK29rlsxzOMopN9B7JjMy7CoG3x_10huUZWjNA7F0ZBqRHxaVxEDb_f9_KczFRkrokNMIF7B-77caYYEp-SvSGHWAj6tlblJM9Ll3d3dDd-54VTc6QYeqSE79_eUW7y3QimKyURTEKUinFz6KlGU-ylDlGax_8ptUtlOlnoeaR_nwSlPetoVwRB4pIrx8MXxGQJxOBLMnZxl-4m00]--></g></svg>