<svg width="125" height="49" viewBox="0 0 125 49" fill="none" xmlns="http://www.w3.org/2000/svg">
<path fill-rule="evenodd" clip-rule="evenodd" d="M12.299 23.96C6.689 27.38 3.841 35.889 6.031 42.685C7.852 48.335 8.69 49.098 11.615 47.766C13.111 47.084 13.864 46.088 13.534 45.229C13.236 44.451 12.72 42.731 12.387 41.407C11.833 39.197 12.079 39 15.392 39C18.541 39 19 39.307 19 41.418C19 45.568 20.054 47 23.107 47H26V37.437V27.873L22.75 28.187C20.11 28.441 19.515 28.922 19.579 30.75C19.646 32.649 19.139 33 16.329 33C12.315 33 12.111 31.845 15.635 29.073C17.408 27.678 19.732 27 22.742 27C26.409 27 27.105 26.715 26.607 25.418C26.273 24.548 26 23.423 26 22.918C26 21.139 15.632 21.927 12.299 23.96ZM30 37.573V47.145L35.75 46.896C43.345 46.566 44.868 46.116 46.087 43.838C46.823 42.462 46.723 41.15 45.729 39.158C44.712 37.12 44.62 35.777 45.381 34.072C47.022 30.395 43.278 28 35.889 28H30V37.573ZM53.763 29.565C48.483 32.43 46.44 39.852 49.791 43.99C51.23 45.768 52.9 46.29 58.291 46.647L65 47.093V37.546V28L60.75 28.04C58.413 28.062 55.268 28.748 53.763 29.565ZM73.286 29.728C69.31 31.708 67 36.365 67 42.401C67 46.844 67.102 47 70 47C72.895 47 73 46.841 73 42.434C73 39.923 73.466 36.998 74.035 35.934C75.491 33.214 78.189 33.431 77.961 36.25C77.861 37.487 77.828 40.413 77.889 42.75C77.989 46.587 78.243 47 80.5 47C82.991 47 83 46.967 83 37.5V28L79.75 28.064C77.963 28.099 75.054 28.848 73.286 29.728ZM89.827 29.701C85.575 34.571 84.575 42.4 87.829 45.345C90.443 47.711 99.148 47.599 101.345 45.171C103.769 42.493 103.461 35.983 100.718 31.898C97.965 27.799 92.458 26.689 89.827 29.701ZM106 37.566V47.133L108.75 46.816C111.102 46.546 111.572 45.952 112 42.717C112.275 40.636 112.838 38.949 113.25 38.967C113.662 38.985 114.45 39 115 39C115.55 39 116 40.83 116 43.066C116 46.913 116.149 47.116 118.75 46.816L121.5 46.5L121.788 37.25L122.075 28H119.038C116.329 28 116 28.325 116 31C116 33.333 115.556 34 114 34C112.444 34 112 33.333 112 31C112 28.333 111.667 28 109 28H106V37.566ZM36 37.5C36 41.333 36.296 42 38 42C40.467 42 40.596 40.161 38.25 38.428C36.848 37.392 36.748 36.883 37.75 35.867C39.429 34.166 39.327 33 37.5 33C36.389 33 36 34.167 36 37.5ZM55.44 35.451C53.357 38.63 53.935 41.416 56.76 41.82C58.8 42.111 59 41.731 59 37.57C59 32.472 57.843 31.783 55.44 35.451ZM92.607 34.582C92.273 35.452 92 37.477 92 39.082C92 41.528 92.404 42 94.5 42C96.662 42 97 41.553 97 38.7C97 34.039 93.922 31.154 92.607 34.582Z" fill="black"/>
<path d="M76.5 16.023L76.79 8.012C76.95 3.605 77.492 0 77.993 0C80.654 0 84 2.517 84 4.518C84 6.455 84.681 6.788 89.75 7.327C94.309 7.813 98.545 9.544 110.207 15.688C118.295 19.949 124.525 23.675 124.052 23.968C123.578 24.261 113.337 24.436 101.295 24.358L79.399 24.215L61.949 14.953C52.352 9.858 43.825 5.728 43 5.775C42.175 5.822 33.175 9.89 23 14.815C4.782 23.633 0 25.665 0 24.59C0 24.29 4.163 22.061 9.25 19.636C14.338 17.212 24.341 12.42 31.48 8.989L44.46 2.751L52.31 3.405C68.712 4.773 68.857 4.819 69.197 8.767C69.443 11.612 70.163 12.632 73 14.15L76.5 16.023Z" fill="black"/>
<path d="M76.5 16.023L76.79 8.012C76.95 3.605 77.492 0 77.993 0C80.654 0 84 2.517 84 4.518C84 6.455 84.681 6.788 89.75 7.327C94.309 7.813 98.545 9.544 110.207 15.688C118.295 19.949 124.525 23.675 124.052 23.968C123.578 24.261 113.337 24.436 101.295 24.358L79.399 24.215L61.949 14.953C52.352 9.858 43.825 5.728 43 5.775C42.175 5.822 33.175 9.89 23 14.815C4.782 23.633 0 25.665 0 24.59C0 24.29 4.163 22.061 9.25 19.636C14.338 17.212 24.341 12.42 31.48 8.989L44.46 2.751L52.31 3.405C68.712 4.773 68.857 4.819 69.197 8.767C69.443 11.612 70.163 12.632 73 14.15L76.5 16.023Z" fill="#D9261E"/>
</svg>
